<svg version="1.1" id="Layer_2" xmlns="http://www.w3.org/2000/svg" x="0" y="0" viewBox="0 0 400 400" xml:space="preserve"><style>.st0{fill:#ffc864}.st1{fill:#2d46b9}.st2{fill:#ff4632}.st4{fill:#fff}</style><path class="st1" d="M315.02 164.67c.82-3.89.31-7.91.32-11.88.03-11.06 4.35-22.06 11.84-30.19.82-.89 1.85-1.82 3.06-1.71-.3 9.8 2.79 19.34 5.39 28.8 2.6 9.46 4.73 19.45 2.51 29-2.48 10.64-10.61 19.78-20.88 23.48-.11.04-6.97-20.34-7.56-22.15-.43-1.32-1.98-4.14-1.74-5.49.26-1.43 1.09-1.44 2.22-2.26 2.57-1.86 4.19-4.51 4.84-7.6z"/><path class="st0" d="M336.53 180.33c5.69-3.79 12-7.29 18.84-7.28 1.32 0 3.05.61 2.91 1.91-.06.56-.48 1-.87 1.4a35.847 35.847 0 00-7.56 12.05c-1.31 3.49-2.06 7.16-3.26 10.68-4.12 12.1-13.69 22.18-25.48 27.1-.77.32-1.74.59-2.35.03-.34-.31-.45-.8-.54-1.26-1-5.1-1.35-10.29-1.49-15.47-.1-3.72-.97-8.37 1.06-11.67 4.43-7.2 11.8-12.88 18.74-17.49z"/><path class="st2" d="M57.35 235.44c-3.18-1.48-3.24.82-2.31 3.81 2.19 7.04 6.05 13.74 10.68 19.45-2.74-.4-5.48-.81-8.23-1.21-.33-.05-.67-.09-.98.01-1.24.43-.63 2.31.21 3.31 8.76 10.49 20.24 17.26 32.18 23.5 3.18 1.66 6.48 3.1 9.87 4.3 1.94.69 7.42 1.16 8.77 2.65a330.02 330.02 0 01-26.07-32.41c-4.41-6.26-6.73-12.07-13.34-16.4-3.38-2.22-6.72-4.84-10.29-6.75-.17-.1-.33-.18-.49-.26z"/><path class="st0" d="M63.13 206.01c-.43.03-.87.16-1.3.45-2.34 1.57-1.81 6.17-1.48 8.47 2.15 14.89 7.25 29.33 14.78 42.36a120.19 120.19 0 0012.9 18.19c2.48 2.88 5.09 5.65 7.84 8.26 2.37 2.25 5.25 3.72 7.81 5.79.79.63 3.53 2.07 3.84 2.96-6.42-18.28-13.3-36.4-20.58-54.36-2.43-5.99-4.23-11.26-7.99-16.55-3.18-4.48-6.8-8.65-10.79-12.43-1.27-1.18-3.13-3.25-5.03-3.14z"/><path class="st1" d="M87.79 259.48c-6.48-2.07-14.26 1.68-16.67 8.04-1.11 2.93-1.17 6.13-1.71 9.22-.54 3.08-1.74 6.31-4.37 8.01-3.11 2-7.18 1.3-10.78 2.16-4.51 1.08-8.11 4.71-10.07 8.91s-2.47 8.94-2.47 13.57h104.47l4.48-21.6-62.88-28.31z"/><path class="st0" d="M268.13 108.06c.58.12 4.72-7.89 5.21-8.75 1.7-2.94 3.36-5.9 4.98-8.89 2.75-5.06 5.76-9.73 7.8-15.14.69-1.82 1.23-3.99.14-5.6-1.36-2.03-4.09-2.92-6.35-2.04-3.06 1.18-4.71 4.82-6.04 7.57-1.69 3.5-3.61 6.82-5.42 10.25-.86 1.62-9.66 18.2-9.02 18.68 2.56 1.93 5.55 3.28 8.7 3.92z"/><path d="M292.81 109.78c3.47-2.39 3.23-9.42 2.33-12.96-1.35-5.32-4.91-9.83-8.79-13.57-3.86-3.72-7.88-6.85-13.07-8.33-5.56-1.59-11.44-2.6-17.14-1.62-2.92.5-5.76 1.57-8.24 3.2-1.85 1.22-5.09 3.44-4.99 5.94.04 1.03.59 1.99 1.32 2.72 2.23 2.26 5.44 3.61 8.16 5.18 3.48 2 7.06 3.82 10.54 5.81 8.65 4.95 17.45 9.64 26.54 13.72 1.39.62 2.48.5 3.34-.09z"/><path class="st0" d="M133.12 108.06c-.58.12-4.72-7.89-5.21-8.75-1.7-2.94-3.36-5.9-4.98-8.89-2.75-5.06-5.76-9.73-7.8-15.14-.69-1.82-1.23-3.99-.14-5.6 1.36-2.03 4.09-2.92 6.35-2.04 3.06 1.18 4.71 4.82 6.04 7.57 1.69 3.5 3.61 6.82 5.42 10.25.86 1.62 9.66 18.2 9.02 18.68a21.725 21.725 0 01-8.7 3.92z"/><path d="M108.43 109.78c-3.47-2.39-3.23-9.42-2.33-12.96 1.35-5.32 4.91-9.83 8.79-13.57 3.86-3.72 7.88-6.85 13.07-8.33 5.56-1.59 11.44-2.6 17.14-1.62 2.92.5 5.76 1.57 8.24 3.2 1.85 1.22 5.09 3.44 4.99 5.94-.04 1.03-.59 1.99-1.32 2.72-2.23 2.26-5.44 3.61-8.16 5.18-3.48 2-7.06 3.82-10.54 5.81-8.65 4.95-17.45 9.64-26.54 13.72-1.38.62-2.48.5-3.34-.09z"/><path class="st0" d="M156.49 312.85c-9.06 7.4-18.12 14.8-27.19 22.19-1.21.99-2.48 2-4 2.35-2.35.53-4.98-.87-5.85-3.12-.73-1.89-.27-4.01.21-5.98 2.51-10.29 5.36-20.49 8.55-30.58 1.9-1.15 3.73.91 5.78 1.77a89.757 89.757 0 0120.36 11.91c.56.43 2.68 1.02 2.14 1.46zM244.76 312.85c9.06 7.4 18.12 14.8 27.19 22.19 1.21.99 2.48 2 4 2.35 2.35.53 4.98-.87 5.85-3.12.73-1.89.27-4.01-.21-5.98a474.327 474.327 0 00-8.55-30.58c-1.9-1.15-3.73.91-5.78 1.77a89.757 89.757 0 00-20.36 11.91c-.56.43-2.68 1.02-2.14 1.46z"/><circle class="st2" cx="200.62" cy="210.04" r="123.34"/><circle class="st0" cx="200.62" cy="210.04" r="84.46"/><path d="M200.59 274.96l-.38-65.5a.85.85 0 111.7 0v.01l-.38 65.5c0 .26-.21.47-.47.46a.476.476 0 01-.47-.47z"/><path d="M138.9 209.06l62.15-.48c.47 0 .85.37.86.84 0 .47-.37.85-.84.86h-.01l-62.15-.48c-.21 0-.37-.17-.37-.38-.01-.19.16-.36.36-.36z"/><path class="st4" d="M146.47 200.94l-.01 17c0 .43-.47.7-.84.47l-14.02-8.5a.553.553 0 010-.95l14.03-8.49c.37-.23.84.04.84.47z"/><circle class="st4" cx="201.05" cy="209.46" r="6.65"/><path class="st2" d="M200.62 86.7c-68.12 0-123.34 55.22-123.34 123.34s55.22 123.34 123.34 123.34 123.34-55.22 123.34-123.34S268.74 86.7 200.62 86.7zm1.26 216.27c-51.33.69-93.5-40.35-94.19-91.68-.69-51.33 40.35-93.5 91.68-94.19 51.33-.69 93.5 40.35 94.19 91.68.69 51.33-40.35 93.5-91.68 94.19z"/><path class="st1" d="M276.2 274.84c11.04.86 20.29-3.36 31.84-5.43 10.65-1.91 21.59.09 32.41-.34 2.88-.11 6.06-.15 8.61-1.65 1.31-.77 2.41-2.03 2.6-3.53.32-2.46-1.87-4.6-4.2-5.44s-4.88-.83-7.28-1.48c-11.85-3.24-9-15.81-11.09-24.88-1.89-8.16-9.85-14.16-18.19-14.89-8.35-.73-16.69 3.25-22.37 9.4-2.66 2.87-4.81 6.2-7.58 8.96-2.74 2.74-7.05 5.39-11.07 5.46-4.78.08-8.86-3.38-13.83-2.33-5.67 1.2-9.31 5.89-13.36 9.61-2.23 2.05-4.47 3.5-7.25 4.69-2.69 1.15-6.39 1.99-8.17 4.44-1.39 1.92-1.36 4.95.51 6.4 1.96 1.52 6.2 1.55 8.6 1.54 3.86-.02 7.74-.38 11.58.17 8.07 1.14 14.15 6.29 21.9 8.24 2.2.57 4.3.9 6.34 1.06zM116 173.62c-9.57.74-17.59-2.92-27.6-4.71-5.1-.91-10.93-.91-16.04-.11-4.67.73-8.76-.15-13.34-1.49-1.57-.46-3.27-1.08-4.07-2.51-1.18-2.11.28-4.82 2.28-6.19s4.44-1.91 6.52-3.15c5.78-3.44 7.31-11.09 11.65-16.23 2.7-3.2 6.48-5.37 10.5-6.55 2.44-.72 5.04-1.1 7.55-.63 3.17.6 5.93 2.48 8.54 4.39 6.57 4.81 12.36 8.94 20.82 7.78 3.59-.5 6.97-2.73 10.69-1.94 8.57 1.81 10.17 11.15 17.8 14.12 1.86.72 3.97 1.42 4.9 3.19.8 1.51.36 3.57-.98 4.63-3.37 2.66-10.67.77-14.72 1.34-7 .99-12.26 5.45-18.98 7.15-1.92.48-3.75.77-5.52.91z"/><path class="st4" d="M250.12 135.43c.03-.12.11-.22.23-.26.18-.05.36.07.5.18 3.64 2.81 6.63 6.16 9.9 9.36-.37-.36 5.24-11.09 5.81-12.26.11-.22.23-.45.45-.55.51-.24.99.4 1.1.95.14.74.04 1.51-.06 2.26-.32 2.32-.72 4.64-1.18 6.94-.23 1.13-.53 1.97-.57 3.15-.01.17-.01.35.08.49.12.17.34.23.55.27 1.07.19 2.15.22 3.23.3 3.06.24 6.29.76 9.23 1.58.09.03.19.06.26.13.09.11.07.29-.02.4-.09.12-.22.19-.35.25-.79.39-1.72.49-2.58.68-1 .22-1.99.45-2.99.67-1.49.33-3.12.53-4.56 1.02-.81.28-1 .13-.73.86.2.53 1.42 1.26 1.85 1.65 2.37 2.17 4.67 4.41 6.89 6.74.27.28.55.66.38 1.01-.2.4-.79.33-1.21.17-1.82-.68-3.49-1.69-5.15-2.7-1.96-1.19-3.91-2.38-5.87-3.56-1.16 2.26-1.52 5.22-2.19 7.68-.76 2.79-1.56 5.58-2.27 8.38-.13.5-.41 1.1-.93 1.07-.56-.04-.72-.77-.73-1.33-.08-5.27-.46-10.61-1.21-15.84-.01-.1-.03-.2-.1-.27-.16-.15-.41 0-.57.14-1.16 1.04-2.3 2.09-3.43 3.16-2.81 2.64-5.67 5.2-8.99 7.21-.22.13-.52.25-.69.07-.16-.17-.05-.45.07-.66 1.2-2.09 2.36-4.16 3.77-6.09 1.48-2.03 3-4.02 4.54-6 .12-.15.24-.32.22-.51-.02-.21-.2-.37-.37-.5-3.29-2.59-6.45-5.34-9.37-8.33-.06-.06-.12-.13-.13-.21-.04-.24.31-.33.55-.3 3.54.89 7.04 2.12 10.42 3.49.17.07.4.13.53-.01.1-.11.06-.29.02-.43-.99-3.43-2.41-6.71-4.15-9.82-.09-.15-.17-.31-.19-.49a.233.233 0 01.01-.14z"/></svg>