<svg version="1.1" id="Layer_2" xmlns="http://www.w3.org/2000/svg" x="0" y="0" viewBox="0 0 400 400" xml:space="preserve"><style>.st0{fill:#ffc864}.st1{fill:#2d46b9}.st2{fill:#ff4632}.st4{fill:#fff}.st6{fill:none;stroke:#000;stroke-width:1.347;stroke-miterlimit:10}</style><path class="st1" d="M364.38 288.67l-215.31-11.35v23.84H364.4z"/><path class="st2" d="M325.66 77.64c3.38 7.35 3.72 15.58.94 23.18-2.79 7.64-8.39 13.74-15.77 17.17l-188.41 87.19-10.17-21.86 188.41-87.19c3.17-1.48 4.54-5.25 3.08-8.43l-.14-.29c-1.48-3.17-5.26-4.55-8.43-3.08l-118.45 55.11c-.87.41-7.92 3.7-11.37 5.08-5.78 2.31-11.02 3.16-16.03 2.61-7.77-.86-14.89-4.91-20.03-11.42-3.44-4.35-5.8-9.54-6.89-14.97-.54-2.7-.72-5.41-.65-8.15.07-2.75.74-5.04 1.53-7.71.82-2.76 1.64-5.75.69-8.47-.93-2.67-3.41-4.52-6-5.66-4-1.76-8.38-3.04-12.53-4.42-4.65-1.55-9.48-2.26-14.08-3.96-.89-.33-1.84-.75-2.28-1.59-.4-.76-.29-1.68-.15-2.53.96-6.03 2.46-11.98 4.45-17.76.12-.36.25-.72.5-1.01 1.72-2.06 9.15 1 11.18 1.55 4.46 1.22 8.87 2.64 13.21 4.26 6.19 2.31 12.75 5.14 17.7 9.6 5.51 4.97 10.43 11.82 11.94 19.18.96 4.64.53 9.44-.44 14.04-.91 4.31-3.08 9.2.05 13.18 2.4 3.04 5.81 2.06 8.88.84 2.4-.96 8.11-3.59 10.1-4.53l.03-.01 118.46-55.11c15.23-7.08 33.38-.46 40.47 14.77l.14.29c.03.02.05.06.06.1z"/><path class="st0" d="M73.17 273.49c.46.53.94 1.04 1.44 1.54.94.93 2.13 1.87 3.53 1.27.61-.26 1.07-.76 1.35-1.36.65-1.38.41-2.87.25-4.32-.91-8.61 1.63-17.31 5.81-24.9 5.41-9.82 13.69-20.55 22.82-27.04.96-.68 9.93-6.19 14.92-8.81a3.725 3.725 0 001.64-4.87l-10.7-22.85a5.363 5.363 0 00-7.15-2.57l-9.36 4.45c-7.84 3.72-16.96 5.71-25.55 6.44-7.02.6-14.25.2-21.03-1.71-6.88-1.94-11.99-6.83-17.65-11.1-1.48-1.11-3.56-2.25-5-.95-.58.52-.85 1.29-.82 2.07.27 5.94 5.21 13.07 7.66 18.48 3.18 7.03 6.4 14.03 9.65 21.02 6.51 13.98 13.18 27.89 20.01 41.72 2.33 4.72 4.74 9.52 8.18 13.49z"/><path class="st2" d="M292.96 287.14c.13 12.57-2.21 21.16-6.61 28.44-6.57 10.87-19.46 17.17-32.13 16.24-10.19-.75-19.64-5.15-29.7-6.58-10.77-1.53-18.11 1.76-26.72 7.89-11.07 7.88-22.46 12.56-36.02 8.75-29.51-8.3-43.47-44.59-33.4-72.09 4.6-12.55 13.92-23.21 25.49-29.83 13.19-7.55 26.34-5.07 40.1.62 9.56 3.95 19.46 9.31 30.1 9.34 9.86.03 19.34-5.71 29.26-6.65 12.64-1.19 25.66 4.84 32.46 15.57 4.53 7.19 7.04 15.73 7.17 28.3"/><circle class="st1" cx="287.25" cy="206.14" r="46.13"/><circle class="st2" cx="66.22" cy="166.66" r="3.9"/><circle class="st0" cx="364.4" cy="188.23" r="3.9"/><path class="st0" d="M157.27 288.32V77.36c35.5-.31 76.1 15.97 94.05 46.4 17.29 29.31 18.66 67.61 42.23 92.16 12.23 12.74 28.94 20.01 43.48 30.04 14.54 10.03 27.93 25.07 27.35 42.72l-207.11-.36z"/><path class="st1" d="M200.12 84.64v203.79l-42.85-.11V77.36c25.48-.5 42.85 7.28 42.85 7.28z"/><path class="st6" d="M175.87 272.33h-18.6M175.87 252.28h-18.6M175.87 232.23h-18.6M175.87 212.19h-18.6M175.87 192.14h-18.6M175.87 172.09h-18.6M175.87 152.05h-18.6M175.87 132h-18.6M175.87 111.95h-18.6M175.87 91.91h-18.6"/><g><path class="st4" d="M176.29 270.22c-.78.71-.55 2.11-.51 3.04.01.24.03.49.15.69.11.18.31.3.5.4 1.76.89 4.36.54 6.3.54h17.39v-5.12H181.25c-1.34 0-3.51-.34-4.72.28-.09.04-.17.1-.24.17zM176.37 250.28c-.68.71-.52 1.93-.56 3.06-.01.3-.01.61.15.86.2.28.56.38.9.44 1.39.26 2.68 0 4.06.06.94.04 1.87.14 2.82.14h16.37v-5.12h-19.05c-1.23 0-2.51-.24-3.73.04-.42.11-.74.29-.96.52zM176.38 230.26c-1.01.77-.7 2.25-.66 3.42.01.14.01.28.07.41.06.12.15.22.26.29.41.29.94.32 1.43.33.23.01.47.01.7.02 7.3.17 14.62.06 21.92.06v-5.12h-14.64c-2.38 0-4.77.04-7.16.1-.49.01-.99.02-1.44.21-.17.08-.34.17-.48.28zM176.33 209.99c-.06.05-.11.09-.15.15-.71.91-.27 2.56-.2 3.6.01.14.02.28.09.4.17.3.57.34.91.35 7.73.13 15.4.26 23.14.26v-5.12h-1.27c-6.06 0-12.13-.1-18.19.03-1.03.02-3.46-.36-4.33.33zM176.16 190.13c-.07.06-.14.13-.19.22-.56.8-.41 2.15-.28 3.05.03.23.08.48.23.66.17.21.45.29.71.36 1.42.35 2.9.35 4.37.34 6.36-.02 12.72-.06 19.08-.06h.04v-5.12h-1.09c-7.11 0-14.23-.38-21.33.1-.54.03-1.14.11-1.54.45zM176.66 169.46c-.13.01-.26.04-.38.09-.39.16-.64.54-.76.94-.11.4-.11.82-.1 1.24.01.55.03 1.1.04 1.66.01.32.03.67.26.89.2.2.51.23.79.26 3.86.34 7.72.08 11.6.07 4-.01 8.01.04 12.01.04v-5.12c-.01-.28-19.06.11-20.68.04-.76-.04-1.52-.07-2.28-.11-.17 0-.34-.01-.5 0zM176.58 150.13c-.28.32-.47.74-.55 1.17-.13.68-.02 1.38.08 2.07.05.33.11.67.34.91.27.28.69.33 1.07.36 4.83.37 9.78-.03 14.63-.03h7.97v-5.12c0 .15-7.9-.23-8.55-.23-4.43-.03-8.86.06-13.28.25-.37.02-.75.03-1.09.18-.24.09-.45.25-.62.44zM176.63 130c-.09.11-.14.27-.18.41a8.97 8.97 0 00-.33 2.82c.01.3.05.61.21.86.32.49.98.58 1.56.61 4.67.27 9.28-.15 13.97-.15h8.27v-5.12c0 .13-8.89-.2-9.52-.22-4.47-.08-8.94.1-13.38.54-.18.02-.37.04-.51.15-.04.04-.07.07-.09.1zM176.57 110.01c-.4.45-.56 1.14-.68 1.75-.14.74-.23 1.64.35 2.11.3.25.71.31 1.09.35 4.86.57 9.87.28 14.77.28h8.02v-5.12c0-.09-20.09.02-21.91.06-.42.01-.85.03-1.22.22-.17.1-.31.22-.42.35zM176.35 89.76c-.2.24-.35.54-.42.85-.14.54-.1 1.11-.06 1.67.04.47.09.98.41 1.34.33.37.87.48 1.36.54 1.77.23 3.57.24 5.36.26 5.71.04 11.42.05 17.13.05v-5.12c0-.19-20.35-.17-22.18-.15-.35 0-.7.01-1.02.14-.24.08-.43.23-.58.42z"/></g><path class="st1" d="M102.59 142.97c-.01.1-.06.2-.15.24-.14.07-.3 0-.44-.07-3.37-1.74-6.3-4.02-9.43-6.12.35.24-2.6 9.79-2.89 10.82-.05.19-.12.4-.28.51-.38.27-.87-.18-1.03-.61-.22-.58-.26-1.22-.29-1.84-.09-1.94-.11-3.87-.08-5.81.02-.95.13-1.68 0-2.64-.02-.14-.04-.29-.14-.39-.12-.12-.31-.14-.48-.14-.89 0-1.78.14-2.67.24-2.52.26-5.22.32-7.73.09-.08-.01-.17-.02-.23-.07-.09-.08-.1-.22-.04-.33.05-.11.15-.18.25-.26.58-.43 1.33-.65 2-.94.78-.33 1.55-.66 2.33-.99 1.16-.49 2.45-.9 3.55-1.51.62-.34.8-.26.46-.81-.24-.4-1.34-.81-1.75-1.07-2.25-1.4-4.45-2.89-6.6-4.44-.26-.19-.54-.46-.46-.76.1-.36.59-.38.96-.32 1.58.28 3.09.85 4.59 1.42 1.77.67 3.53 1.35 5.3 2.02.6-2.01.46-4.47.63-6.56.2-2.38.44-4.76.59-7.14.04-.42.17-.96.59-1.01.46-.05.7.52.79.97.85 4.27 1.96 8.54 3.34 12.68.03.08.06.16.12.2.15.1.33-.06.44-.2.79-1.01 1.55-2.04 2.31-3.08 1.89-2.57 3.83-5.07 6.22-7.19.16-.14.38-.28.55-.16.16.12.11.36.04.55-.67 1.87-1.3 3.73-2.16 5.51-.9 1.86-1.84 3.71-2.79 5.54-.07.14-.14.29-.1.45.05.17.22.27.37.35 3.06 1.61 6.03 3.38 8.85 5.37.06.04.12.08.14.15.07.19-.2.31-.4.32-3-.2-6.03-.68-8.98-1.28-.15-.03-.35-.05-.43.09-.06.11-.01.24.05.35 1.32 2.64 2.96 5.09 4.84 7.36.09.11.19.23.22.37.02.05.03.1.02.14z"/><path class="st2" d="M394.03 249.06c-.01.13-.07.25-.19.31-.17.09-.38 0-.55-.09-4.28-2.21-8-5.1-11.98-7.77.44.3-3.3 12.43-3.67 13.73-.07.24-.15.5-.36.65-.48.34-1.1-.23-1.31-.78-.28-.74-.33-1.55-.37-2.34-.11-2.46-.14-4.92-.1-7.38.02-1.21.17-2.13 0-3.35-.03-.18-.06-.37-.18-.49-.15-.16-.4-.17-.61-.17-1.13 0-2.26.18-3.39.3-3.2.34-6.62.41-9.82.12-.1-.01-.21-.02-.29-.09-.12-.1-.12-.28-.06-.42s.19-.23.32-.32c.74-.55 1.69-.83 2.54-1.19.98-.42 1.97-.84 2.95-1.26 1.47-.63 3.11-1.14 4.51-1.92.78-.44 1.01-.33.59-1.03-.31-.51-1.7-1.03-2.22-1.35-2.86-1.78-5.65-3.66-8.38-5.64-.33-.24-.69-.58-.58-.97.13-.45.75-.49 1.22-.4 2.01.35 3.92 1.08 5.82 1.81 2.24.85 4.48 1.71 6.72 2.56.76-2.55.58-5.67.8-8.33.25-3.02.56-6.05.75-9.07.04-.54.22-1.22.75-1.28.58-.07.89.66 1 1.23 1.08 5.42 2.48 10.85 4.24 16.1.03.1.07.2.16.26.19.12.42-.08.56-.25 1-1.29 1.97-2.59 2.94-3.91 2.4-3.26 4.87-6.43 7.9-9.14.2-.18.49-.36.7-.2.2.15.14.46.05.69-.85 2.38-1.65 4.73-2.74 6.99a231.69 231.69 0 01-3.55 7.04c-.09.18-.18.37-.13.57.06.22.28.34.47.45 3.88 2.05 7.66 4.29 11.24 6.81.07.05.15.11.18.19.08.24-.26.4-.51.41-3.81-.25-7.65-.86-11.41-1.62-.19-.04-.44-.06-.54.11-.08.14-.01.31.06.45 1.67 3.35 3.76 6.46 6.14 9.34.12.14.24.29.29.47.04.05.04.11.04.17z"/><circle class="st4" cx="215.14" cy="289.24" r="15.02"/><g><path d="M40.96 247.06L30.14 283c-.2.66-.9 1.04-1.56.84-.66-.2-1.04-.9-.84-1.56 0-.01.01-.03.01-.04l12.15-35.51c.1-.29.41-.44.7-.34.29.09.44.39.36.67zM.12 249.03l31.12-12.95.02-.01c.28-.12.6.02.72.3a.56.56 0 01-.27.71L1.09 251.33c-.63.29-1.37.02-1.66-.61s-.02-1.37.61-1.66c.01-.01.03-.01.04-.02l.04-.01zM.44 208.4c9.77 3.95 19.39 8.26 28.82 12.91.27.13.38.46.25.73a.55.55 0 01-.71.26A425.65 425.65 0 00-.44 210.74a1.252 1.252 0 11.84-2.36c.01.01.03.02.04.02z"/></g></svg>