<svg version="1.1" id="Layer_2" xmlns="http://www.w3.org/2000/svg" x="0" y="0" viewBox="0 0 400 400" xml:space="preserve"><style>.st0{fill:#ffc864}.st1{fill:#2d46b9}.st2{fill:#ff4632}</style><path d="M158.21 135.35c-7.29 2.16-13.96 6.23-19.55 11.43-5.6 5.2-10.18 11.51-13.55 18.4-3.38 6.9-5.61 14.34-6.94 21.92-1.34 7.59-1.8 15.33-1.68 23.05 0 .13-.1.23-.22.23s-.23-.1-.23-.22c-.23-7.74.13-15.52 1.38-23.18 1.24-7.66 3.39-15.21 6.72-22.26 3.33-7.05 7.9-13.53 13.57-18.94 5.65-5.4 12.47-9.7 20.01-12.04.45-.14.92.11 1.07.56.14.45-.11.92-.56 1.07 0-.03-.01-.02-.02-.02z"/><path d="M49.24 184.01c6.13-4.89 13.28-8.47 20.88-10.34 7.57-1.89 15.74-1.88 23.17.67 7.45 2.47 13.88 7.68 18.07 14.25 4.22 6.54 6.42 14.43 5.8 22.2-.01.14-.13.24-.26.23-.13-.01-.23-.13-.23-.26.51-7.66-1.76-15.38-5.97-21.73-4.2-6.37-10.51-11.34-17.76-13.64-7.23-2.37-15.14-2.28-22.48-.35-7.36 1.91-14.28 5.49-20.14 10.3h-.01c-.36.3-.9.24-1.2-.12a.86.86 0 01.13-1.21c-.01.01 0 0 0 0z"/><path class="st0" d="M139.71 114.48c.05.09.07.21.02.3-.08.15-.26.19-.43.21-4.04.59-8.02.44-12.07.56.45-.01 3.86 10.18 4.25 11.26.07.2.15.42.08.62-.16.47-.87.39-1.28.11-.56-.37-.99-.9-1.41-1.43a95.583 95.583 0 01-3.7-5.03c-.58-.84-.93-1.55-1.66-2.3-.1-.11-.22-.22-.37-.25-.18-.03-.36.08-.51.18-.78.56-1.46 1.24-2.18 1.88-2.03 1.81-4.35 3.55-6.69 4.92-.07.04-.15.09-.24.08-.13-.01-.22-.13-.25-.26-.02-.13.02-.26.06-.38.24-.74.75-1.4 1.16-2.07.47-.77.94-1.55 1.41-2.32.7-1.16 1.58-2.32 2.15-3.54.32-.69.53-.72-.1-1-.46-.2-1.68.13-2.19.16-2.84.18-5.7.27-8.55.25-.34 0-.76-.06-.88-.38-.14-.38.28-.71.64-.88 1.55-.75 3.23-1.19 4.9-1.63 1.96-.52 3.93-1.04 5.89-1.55-.73-2.13-2.4-4.19-3.56-6.13-1.32-2.2-2.6-4.43-3.96-6.61-.23-.39-.45-.94-.11-1.25.37-.33.94.01 1.3.35 3.42 3.19 7.06 6.24 10.86 8.98.07.05.15.1.24.1.19-.01.25-.26.26-.45.05-1.38.08-2.76.1-4.14.04-3.42.17-6.82.93-10.18.05-.22.16-.49.38-.48.21 0 .32.25.38.45.59 2.05 1.2 4.07 1.57 6.16.38 2.19.72 4.39 1.03 6.59.02.17.06.35.19.45.15.12.36.1.55.07 3.68-.51 7.38-.83 11.09-.86.07 0 .15 0 .22.04.18.12.02.4-.15.53-2.75 1.71-5.69 3.19-8.64 4.51-.15.07-.33.18-.32.34.01.13.14.22.26.28 2.8 1.48 5.77 2.59 8.83 3.4.15.04.31.08.43.18.02.08.05.12.07.16z"/><path class="st1" d="M274.64 12.53c-.53-.08-1.08-.09-1.61-.08-7.34.11-14.66 1.32-21.67 3.52-28.08 8.81-48.17 33.2-51.21 62.55-.82 7.93-.23 15.82.02 23.73.26 8.3.32 16.51 1.11 24.79.45 4.71 1.01 9.4 1.56 14.1.08.66.01 3.92.95 4.1 1.44.28 1.55-2.2 1.55-3.05 0-13.42-.5-26.97-.04-40.34.01-.28.03-.58.21-.8.2-.24.53-.3.84-.34 14.59-2.14 28.8-7.45 40.73-16.11s21.48-20.77 26.33-34.69c1.76-5.06 2.91-10.31 3.71-15.6.54-3.52 1.07-7.05 1.15-10.61.06-2.58.19-8.21-1.66-10.24-.5-.57-1.21-.82-1.97-.93z"/><path class="st1" d="M149.97 55.24c1.18-.43 3.6.48 4.62.67 2.29.43 4.56 1.13 6.77 1.86 4.35 1.45 8.55 3.35 12.49 5.69 7.81 4.64 14.61 11.05 19.22 18.91 5.48 9.34 7.77 20.27 8.21 31.08.26 6.41-.1 12.82-.7 19.19-.31 3.26-.7 6.51-1.08 9.76-.05.46-.01 2.72-.66 2.84-1 .19-1.08-1.52-1.07-2.11.09-9.33-.09-18.68.01-28 0-.13 0-.28-.07-.39-.1-.16-.3-.23-.48-.28-16.5-4.67-29.51-18.71-39.2-32.27-2.69-3.77-5.2-7.71-6.9-12.02s-2.58-9.02-1.94-13.61c.05-.33.1-.67.29-.95.1-.17.27-.29.49-.37z"/><path class="st2" d="M99.64 142.27c-2.14-2.12-5.32-3.18-8.3-2.65-1.98.35-3.79 1.33-5.72 1.92-5.35 1.63-7.64-2.48-11.46-5.24-2.72-1.97-6.54-2.31-9.57-.85-2.01.97-3.68 2.65-5.83 3.21-4.23 1.09-8.09-2.44-12.17-3.99-3.69-1.4-7.98-1.14-11.47.7-1.58.84-3.17 2.62-2.34 4.21.34.66 1.04 1.07 1.74 1.34 2.26.86 4.77.56 7.16.88 2.39.32 5.02 1.68 5.38 4.07.19 1.25-.3 2.51-.28 3.77.04 2.35 1.82 4.3 3.68 5.75 1.32 1.03 2.84 1.97 4.52 2.02 3.68.11 6.8-4.02 10.37-3.11 2.55.66 3.41 3.31 5.24 4.86 1.97 1.68 5.06 2.85 7.58 3.28 6.38 1.09 11.19-4.5 17.09-5.68 6.81-1.36 14.04 3.85 16.88 9.77 1.75 3.64 2.36 7.7 2.32 11.71-.03 3.95.14 7.84.11 11.81-.1 16.63-.21 33.27-.31 49.9 2.36-5.04 2.89-10.72 3.27-16.28 1.1-16.21 1.2-32.48.29-48.7-.32-5.64-1.01-11.84-5.13-15.7-2.66-2.49-6.5-3.48-8.24-6.8-1.52-2.91-1.88-6.34-3.81-9.05-.31-.41-.64-.8-1-1.15z"/><path class="st0" d="M218.05 147.39c-.08 5.4.15 11.53 4.22 15.08 2.77 2.42 6.66 2.98 10.3 3.53 9.35 1.41 19.33 3.8 25.44 11 6.41 7.54 6.88 18.27 7.69 28.14s2.95 20.83 11.09 26.46c9.14 6.32 21.91 3.21 32.17 7.48 12.3 5.11 15.78 17.06 15.66 29.26-.06 6.06-.48 12.17.6 18.13 1.07 5.96 3.88 11.9 8.91 15.27 6.96 4.65 15.63 5.93 22.43 10.87 9.67 7.02 10.77 19.02 10.88 30.04H135.21v-132.4c0-29.58 19.6-37.67 27.22-40.97 15.79-6.84 14.92-27.56 14.92-27.56v-18.37h40.79l-.09 24.04z"/><path class="st2" d="M134.25 160.88c2.15-2.11 5.34-3.15 8.31-2.6 1.98.36 3.79 1.35 5.71 1.95 5.34 1.66 7.66-2.44 11.49-5.18 2.73-1.96 6.55-2.28 9.58-.8 2 .98 3.66 2.67 5.82 3.23 4.22 1.11 8.1-2.4 12.19-3.93 3.7-1.39 7.99-1.1 11.47.76 1.58.84 3.15 2.64 2.32 4.22-.35.66-1.04 1.07-1.74 1.33-2.26.85-4.77.54-7.17.85-2.39.31-5.03 1.65-5.4 4.04-.19 1.25.29 2.51.26 3.77-.06 2.35-1.84 4.29-3.71 5.73-1.33 1.03-2.85 1.96-4.53 2-3.68.09-6.78-4.06-10.35-3.16-2.56.64-3.43 3.29-5.27 4.84-1.98 1.67-5.07 2.82-7.6 3.24-6.38 1.05-11.17-4.56-17.07-5.76-6.23-1.28-15.9 4.02-17.88 10.27-.38 1.2-.49 2.46-.59 3.71-1.84 22.95-.98 46.11-.95 69.12-2.33-5.05-2.84-10.74-3.18-16.29a393.852 393.852 0 01-.04-48.71c.34-5.64 1.07-11.83 5.21-15.68 2.67-2.48 6.52-3.45 8.27-6.76 1.54-2.9 1.92-6.33 3.86-9.03.29-.42.63-.8.99-1.16z"/><path class="st1" d="M193.74 359.73v-65.17c0-29.06-19.98-54.31-48.27-60.99v-36.29H88.44v36.29c-28.29 6.67-48.27 31.92-48.27 60.99v65.17h153.57z"/><circle class="st2" cx="45.58" cy="186.63" r="7.49"/><circle class="st2" cx="161.36" cy="133.79" r="7.49"/><path d="M256.15 264.11c-2.08 4.71-2.68 10.31-6.33 13.93-1.88 1.86-4.38 2.98-6.33 4.77-2.82 2.58-4.28 6.36-4.84 10.13-.56 3.78-.32 7.62-.26 11.44.31 17.92-3.24 35.94-.71 53.68.83-16.13 1.67-32.25 2.5-48.38.11-2.14.23-4.32 1.04-6.3.8-1.98 2.43-3.76 4.54-4.15 2.68-.5 5.66 1.28 8.06-.02 3.2-1.73 2.05-6.74 4.01-9.8.92-1.43 2.47-2.32 3.84-3.33 2.82-2.07 5.15-4.93 6.54-8.14 1.13-2.6 3.7-5.75 3.84-8.55.14-2.98-1.56-5.95-.97-8.89.58-2.88 3.5-5.97 5.62-7.83.6-.53 1.23-1.52.57-1.97-.23-.16-.53-.15-.8-.13-8.85.57-16.7 5.34-20.32 13.54z"/><path d="M221.61 273.61c1.79 4.06 2.31 8.89 5.46 12.02 1.62 1.61 3.78 2.57 5.46 4.11 2.43 2.22 3.69 5.48 4.18 8.74.49 3.26.28 6.57.22 9.86-.27 15.46 2.8 31 .61 46.3l-2.16-41.73c-.1-1.84-.2-3.72-.89-5.43-.69-1.71-2.1-3.24-3.91-3.58-2.31-.43-4.88 1.1-6.95-.02-2.76-1.49-1.77-5.82-3.46-8.45-.8-1.24-2.13-2-3.31-2.87-2.43-1.79-4.44-4.25-5.64-7.02-.97-2.24-3.2-4.96-3.31-7.38-.13-2.57 1.34-5.13.84-7.66-.5-2.48-3.02-5.15-4.84-6.75-.52-.45-1.06-1.31-.49-1.7.2-.14.46-.13.69-.11 7.61.48 14.38 4.59 17.5 11.67z"/><path d="M236.45 358.62c-.14-29.99 1.01-59.98 3.43-89.87.44-5.47.93-10.96 2.21-16.29a56.401 56.401 0 0111.87-23.33c3.61-4.23 7.82-7.92 12.1-11.45 4.39-3.62 8.74-7.3 13.02-11.12.36-.32.93-.65 1.28-.31.15.15.18.37.2.58.56 5.92-1.81 13.11-5.76 17.53-2.44 2.73-5.84 4.71-7.44 8-2.31 4.73-.71 11.62-5.1 14.52-1.06.7-2.4 1.08-3.09 2.15-.99 1.52-.14 3.53-.32 5.33-.23 2.46-2.37 4.31-4.59 5.39-2.22 1.08-4.69 1.66-6.75 3.01-5.41 3.53-6.39 10.91-6.81 17.35-1.7 25.9-2.75 51.84-3.43 77.78-.01.55-.05 1.14-.4 1.56-.35.4-.42-.28-.42-.83z"/><path d="M239.42 275.09c.48 5.32.23 10.68-.02 16.02L236.25 358c-.04.84-.11 1.74-.66 2.37-1.54-3.2-1.53-6.91-1.43-10.46.71-25.31 3.79-50.36 2-75.7-.37-5.26-1.24-11.39-5.49-15.03-1.51-1.3-3.37-1.99-4.91-3.2-4.08-3.2-2.73-8.57-4.93-12.74-1.9-3.59-6.29-5.5-7.74-9.3-1.32-3.48.25-7.45-.64-11.07-.72-2.93-2.95-5.22-4.45-7.84-4.58-7.96-2.63-17.4 2.17-24.76 2.38-3.66 3.61 2.7 4.17 4.35 1.58 4.74 2.97 9.49 4.64 14.18l7.71 21.6c1.05 2.94 1.61 6.3 2.97 9.05 2.87 5.8 5.18 11.88 6.92 18.11 1.66 5.87 2.3 11.51 2.84 17.53z"/><path class="st2" d="M302.57 321.74c0 36.35-29.47 65.82-65.82 65.82s-65.82-29.47-65.82-65.82h131.64z"/></svg>